<?xml version="1.0" encoding="utf-8"?>
<!-- Generator: Adobe Illustrator 24.2.3, SVG Export Plug-In . SVG Version: 6.00 Build 0)  -->
<svg version="1.1" id="Layer_1" xmlns="http://www.w3.org/2000/svg" xmlns:xlink="http://www.w3.org/1999/xlink" x="0px" y="0px"
	 viewBox="0 0 64 45" style="enable-background:new 0 0 64 45;" xml:space="preserve">
<g>
	<path d="M50.19,18.5l6.94-12.09c0.2-0.36,0.28-0.8,0.21-1.25C57.2,4.24,56.21,3.5,55.27,3.5l-6.13,0c-0.72,0-1.36,0.39-1.7,0.98
		l-2.61,4.68l-1.28-2.23c-0.32-0.53-0.69-1.01-1.14-1.44c-0.82-0.8-1.83-1.4-2.96-1.72c-0.26-0.07-0.52-0.13-0.8-0.18
		c-0.29-0.05-1.05-0.09-1.13-0.09l-21.55,0C14.88,3.5,14,4.39,14,5.48v4.05c0,1.09,0.88,1.97,1.97,1.97h8.98l-8.25,14H12V5.48
		c0-1.09-0.88-1.98-1.98-1.98H3.98C2.89,3.5,2,4.39,2,5.48c0,0,0,20.87,0,20.91c0.02,1.18,0.22,4.33,1,5.11c2,2,2,2,4,2l0,0h33.09
		h0.35c0.01,0,0.01,0,0.01,0c0.71,0,1.33-0.38,1.68-0.94l2.71-4.72l7.57,13.17c0.32,0.55,0.9,0.93,1.57,0.98c0.04,0,6.38,0,6.38,0
		c1.09,0,1.97-0.88,1.97-1.97c0-0.34-0.09-0.66-0.24-0.94L50.19,18.5z M35.36,25.5h-8.07l5.56-9.41l2.59-4.42l3.83,6.89L35.36,25.5z
		"/>
</g>
</svg>
